# xmcd CD database file
#
# Track frame offsets:
#	150
#	16205
#	29137
#
# Disc length: 647 seconds
#
# Revision: 0
# Processed by: cddbd v1.4PL0 Copyright (c) Steve Scherf et al.
# Submitted via: Feurio! 1.66 - http://www.feurio.com
#
DISCID=1e028503
DTITLE=Wynonna Judd - Father Sun
DYEAR=1900
DGENRE=
TTITLE0=Father Sun (Radio Edit)
TTITLE1=Just Like New
TTITLE2=Father Sun (Album Version)
EXTD=
EXTT0=
EXTT1=
EXTT2=
PLAYORDER=
